<?xml version="1.0" encoding="UTF-8"?>
<svg width="824px" height="597px" viewBox="0 0 824 597" version="1.1" xmlns="http://www.w3.org/2000/svg" xmlns:xlink="http://www.w3.org/1999/xlink">
    <!-- Generator: Sketch 53.2 (72643) - https://sketchapp.com -->
    <title>new_message</title>
    <desc>Created with Sketch.</desc>
    <defs>
        <linearGradient x1="3.77906977%" y1="146.181635%" x2="115.116279%" y2="-86.9384634%" id="linearGradient-1">
            <stop stop-color="#00272E" offset="36%"></stop>
            <stop stop-color="#3F80A1" stop-opacity="0.25" offset="75%"></stop>
            <stop stop-color="#69B9EB" stop-opacity="0" offset="100%"></stop>
        </linearGradient>
        <linearGradient x1="60.7118474%" y1="21.3213336%" x2="33.1755495%" y2="98.0261078%" id="linearGradient-2">
            <stop stop-color="#000000" stop-opacity="0" offset="0%"></stop>
            <stop stop-color="#000000" stop-opacity="0.8" offset="91%"></stop>
            <stop stop-color="#000000" offset="100%"></stop>
        </linearGradient>
        <linearGradient x1="55.2508626%" y1="48.9828212%" x2="29.0145198%" y2="54.0643597%" id="linearGradient-3">
            <stop stop-color="#000000" stop-opacity="0" offset="0%"></stop>
            <stop stop-color="#000000" stop-opacity="0.8" offset="91%"></stop>
            <stop stop-color="#000000" offset="100%"></stop>
        </linearGradient>
        <linearGradient x1="57.6408856%" y1="48.5201108%" x2="31.4045428%" y2="53.6016494%" id="linearGradient-4">
            <stop stop-color="#000000" stop-opacity="0" offset="0%"></stop>
            <stop stop-color="#000000" stop-opacity="0.8" offset="91%"></stop>
            <stop stop-color="#000000" offset="100%"></stop>
        </linearGradient>
        <linearGradient x1="61.8617282%" y1="47.0286482%" x2="29.3638428%" y2="54.8251331%" id="linearGradient-5">
            <stop stop-color="#000000" stop-opacity="0" offset="0%"></stop>
            <stop stop-color="#000000" stop-opacity="0.8" offset="91%"></stop>
            <stop stop-color="#000000" offset="100%"></stop>
        </linearGradient>
        <linearGradient x1="50%" y1="39.7503275%" x2="54.5363756%" y2="53.1613054%" id="linearGradient-6">
            <stop stop-color="#E6B000" offset="0%"></stop>
            <stop stop-color="#3F3D56" offset="100%"></stop>
        </linearGradient>
        <linearGradient x1="19.9130352%" y1="30.1473096%" x2="59.0109497%" y2="60.1542748%" id="linearGradient-7">
            <stop stop-color="#E6B000" offset="0%"></stop>
            <stop stop-color="#3F3D56" offset="100%"></stop>
            <stop stop-color="#3F3D56" offset="100%"></stop>
        </linearGradient>
        <linearGradient x1="34.5448962%" y1="-6.97821682%" x2="89.3223338%" y2="193.427052%" id="linearGradient-8">
            <stop stop-color="#000000" stop-opacity="0" offset="0%"></stop>
            <stop stop-color="#000000" stop-opacity="0.8" offset="91%"></stop>
            <stop stop-color="#000000" offset="100%"></stop>
        </linearGradient>
    </defs>
    <g id="Page-1" stroke="none" stroke-width="1" fill="none" fill-rule="evenodd">
        <g id="new_message" transform="translate(0.000000, -1.000000)" fill-rule="nonzero">
            <path d="M131.3,126 C106.96,131.16 81.66,136.76 62.12,152.17 C45.62,165.17 19.91,189.17 12.12,208.67 C-20.88,291.04 16.43,391.27 88.85,442.53 C122.91,466.64 165.36,478.31 195.97,506.69 C215.33,524.64 228.89,548.4 249.49,564.9 C279.59,588.99 320.23,594.32 358.69,596.9 C385.41,598.71 413.17,599.49 437.96,589.33 C455.88,581.99 471.06,569.4 485.96,556.99 L584.67,474.56 C600.53,461.33 615.36,440.26 636.01,440.4 C821.87,441.73 834.4,223 549.15,126.12 C524.01,117.58 506.77,93.84 483.15,81.67 C434.36,56.52 378.21,64.67 329,82.07 C266.52,104.22 196.14,112.21 131.3,126 Z" id="Path" fill="#E6B000" opacity="0.18"></path>
            <path d="M779.07,478.86 C786.85,478.99 796.87,480.93 798.07,488.61 C798.72,492.61 796.43,496.5 793.95,499.73 C778.44,520 752.74,530.25 727.38,533 C702.02,535.75 676.46,531.9 651.14,528.78 C614.546667,524.26 577.813333,521.26 540.94,519.78 C514.72,518.72 487.14,518.06 464.56,504.7 C460.37,502.23 456.25,499.14 454.24,494.7 C450.24,485.87 456.56,475.12 465.24,470.83 C473.92,466.54 484.12,466.96 493.8,467.48 C588.86,472.6 683.85,478.86 779.07,478.86 Z" id="Path" fill="#000405" opacity="0.05"></path>
            <path d="M779.4,127.4 C779.4,127.4 745.57,171.15 739.15,178.48 C727.44,191.8 719.89,209.27 719.89,209.27 L702.89,281.61 L683.89,276.54 L642.58,265.54 C642.58,265.54 657.26,226 650.15,214 C640.67,198 648.87,188 651.03,181.13 C655.03,168.4 634.6,145.13 634.6,145.13 L621.51,86.5 L641.27,83.86 L655.61,131.39 L680.18,153.32 L697.68,154.25 C697.68,154.25 710.88,156.97 720.48,152.53 C729.66,148.27 762.09,111.7 762.09,111.7 L775.32,123.7 L779.4,127.4 Z" id="Path" fill="#E6B000"></path>
            <path d="M617.33,201.59 L617.33,462.15 C617.327348,468.743282 614.705634,475.065467 610.041604,479.725746 C605.377574,484.386025 599.053282,487.002653 592.46,487 L202.77,487 C189.040201,487 177.91,475.869799 177.91,462.14 L177.91,462.14 L177.91,201.59 C177.90447,187.868004 189.018013,176.736558 202.74,176.72 L592.46,176.72 C599.056747,176.717346 605.384071,179.336718 610.048677,184.001323 C614.713282,188.665929 617.332654,194.993253 617.33,201.59 Z" id="Path" fill="#E6B000"></path>
            <path d="M610.59,184.67 L184,184.67 L187.46,182.02 C187.619815,181.881447 187.786706,181.751272 187.96,181.63 L390.88,26.07 L397.29,21.16 L603.76,179.44 L610.59,184.67 Z" id="Path" fill="#E6B000"></path>
            <path d="M617.33,201.59 L612.14,205.34 L612.14,205.34 L574.35,232.71 L390.88,365.6 L214.43,229.71 L177.91,201.59 L178.38,196.76 C179.268596,192.231278 181.409699,188.042615 184.56,184.67 C185.44405,183.707529 186.407442,182.821075 187.44,182.02 C187.599815,181.881447 187.766706,181.751272 187.94,181.63 C192.221965,178.432045 197.425655,176.709178 202.77,176.72 L592.46,176.72 C605.260615,176.731353 615.965429,186.450027 617.21,199.19 C617.29,199.99 617.33,200.79 617.33,201.59 Z" id="Path" fill="#E6B000"></path>
            <path d="M187.44,182 C186.412014,182.806467 185.449045,183.692532 184.56,184.65 L184,184.65 L187.44,182 Z" id="Path" fill="url(#linearGradient-1)" opacity="0.61"></path>
            <path d="M617.33,201.59 L612.14,205.35 L612.14,205.35 L574.35,232.71 L390.88,365.6 L214.43,229.72 L177.91,201.59 L178.38,196.77 C179.536029,190.921435 182.750479,185.681102 187.44,182 L187.94,181.62 L390.88,26.07 L397.29,21.16 L603.76,179.44 C611.32735,183.293336 616.400631,190.746722 617.21,199.2 C617.290119,199.994145 617.330169,200.791823 617.33,201.59 Z" id="Path" fill="url(#linearGradient-2)"></path>
            <path d="M574.35,182.34 L574.35,232.72 L506.64,281.72 L491.11,293 L390.88,365.6 L296.61,293 L282,281.76 L214.41,229.76 L214.41,182.34 C214.41,178.422752 215.966121,174.665945 218.736033,171.896033 C221.505945,169.126121 225.262752,167.57 229.18,167.57 L559.59,167.57 C567.741054,167.581028 574.344493,174.18894 574.35,182.34 Z" id="Path" fill="#FFFFFF"></path>
            <path d="M524.73,226.51 L257.73,226.51 C256.239483,226.51 254.810014,225.917895 253.75606,224.86394 C252.702105,223.809986 252.11,222.380517 252.11,220.89 L252.11,220.89 C252.11,219.399483 252.702105,217.970014 253.75606,216.91606 C254.810014,215.862105 256.239483,215.27 257.73,215.27 L524.73,215.27 C527.83384,215.27 530.35,217.78616 530.35,220.89 L530.35,220.89 C530.35,223.99384 527.83384,226.51 524.73,226.51 L524.73,226.51 Z" id="Path" fill="url(#linearGradient-3)"></path>
            <path d="M524.73,259.76 L257.73,259.76 C256.239483,259.76 254.810014,259.167895 253.75606,258.11394 C252.702105,257.059986 252.11,255.630517 252.11,254.14 L252.11,254.14 C252.11,252.649483 252.702105,251.220014 253.75606,250.16606 C254.810014,249.112105 256.239483,248.52 257.73,248.52 L524.73,248.52 C526.220517,248.52 527.649986,249.112105 528.70394,250.16606 C529.757895,251.220014 530.35,252.649483 530.35,254.14 L530.35,254.14 C530.35,257.24384 527.83384,259.76 524.73,259.76 Z" id="Path" fill="url(#linearGradient-4)"></path>
            <polygon id="Path" fill="url(#linearGradient-5)" points="506.64 281.76 491.11 293 296.61 293 282.01 281.76"></polygon>
            <polygon id="Path" fill="#000405" opacity="0.05" points="390.88 365.6 228.02 487.02 557.1 487.02"></polygon>
            <path d="M250.4,91.2 C242.2,73.61 211.4,76.5 211.4,76.5 C230.4,65.29 226.76,36.82 226.53,35.14 L226.53,35.14 C234.84,59.96 263.53,54.48 266.1,53.94 C247.05,58.64 250.4,91.2 250.4,91.2 Z" id="Path" fill="#E6B000"></path>
            <path d="M197,127.29 C191.79,116.11 172.2,117.95 172.2,117.95 L172.2,117.95 C184.6,110.58 181.79,91.61 181.79,91.61 L181.79,91.72 C187.11,107.41 205.31,103.93 206.93,103.59 C194.87,106.59 197,127.29 197,127.29 Z" id="Path" fill="#E6B000"></path>
            <path d="M721.56,93.7 C723.975131,91.7609106 727.02938,90.7975375 730.12,91 C732.382276,90.9080676 734.596087,91.6721897 736.32,93.14 C737.648145,94.6303862 738.492087,96.4891519 738.74,98.47 C739.227823,100.924803 739.412537,103.430197 739.29,105.93 C739.07,110.52 737.88,115.38 739.86,119.53 C740.330229,120.517484 740.966085,121.417152 741.74,122.19 C742.635367,123.191413 743.881132,123.810716 745.22,123.92 C746.595441,123.981287 747.809951,123.030062 748.08,121.68 C746.923172,124.256835 744.787468,126.266667 742.145194,127.265026 C739.502921,128.263385 736.571785,128.168013 734,127 C733.170671,126.620799 732.391424,126.140487 731.68,125.57 L733.42,129.1 C731.978675,128.730357 730.583304,128.200384 729.26,127.52 C725.01,125.21 722.63,120.52 721.5,115.78 C720.5,111.43 720.3,106.94 719.36,102.57 C718.67,99.24 718.85,96.12 721.56,93.7 Z" id="Path" fill="#78302D"></path>
            <path d="M720.28,98.5 C721.143632,98.4695617 722.005283,98.6018624 722.82,98.89 C724.197413,99.4624992 725.141844,100.753865 725.27,102.24 C725.348544,103.737808 724.531754,105.139704 723.19,105.81 C722.33432,106.159178 721.413338,106.319497 720.49,106.28 C719.65,106.28 718.8,106.28 717.96,106.2 C717.417823,106.248957 716.922653,105.890386 716.8,105.36 C716.251584,104.271136 715.838512,103.119237 715.57,101.93 C714.88,98.25 717.36,98.47 720.28,98.5 Z" id="Path" fill="#E6B000"></path>
            <path d="M704,133.61 C704,133.61 703.84,136.5 703.64,140.26 C703.47,143.43 703.26,147.26 703.09,150.44 C702.800373,155.819671 700.489503,160.891442 696.62,164.64 C694.36,166.95 688.97,171.26 684.86,169.73 C682.86,168.99 682.79,166.47 683.21,164.96 C684.137135,162.20749 684.652697,159.333149 684.74,156.43 C684.805734,154.080019 684.594276,151.73048 684.11,149.43 C681.54,143 704,133.61 704,133.61 Z" id="Path" fill="#FF8E8E"></path>
            <path d="M704,133.61 C704,133.61 703.84,136.5 703.64,140.26 C702.06,143.78 700.58,146.65 699.77,148.08 C698.14,150.97 691.44,155.52 684.77,156.43 C684.835734,154.080019 684.624276,151.73048 684.14,149.43 C681.54,143 704,133.61 704,133.61 Z" id="Path" fill="#000000"></path>
            <path d="M684.44,95.32 C672.59366,96.0383153 663.572393,106.223617 664.29,118.07 C664.29,118.58 664.37,119.07 664.44,119.59 C665.108325,128.326996 667.351076,136.871131 671.06,144.81 C678.06,156.81 695.8,146.94 698.61,142 C701.42,137.06 715.462045,115.448957 710.932045,109.138957 C707.812045,104.878957 695.9,94.86 684.44,95.32 Z" id="Path" fill="#FF8E8E"></path>
            <path d="M678.14,83.13 C685.666529,80.9328186 693.694536,81.1672896 701.08,83.8 C708.35,86.56 714.62,92.24 717.39,99.51 C719.769126,106.247817 719.540822,113.632027 716.75,120.21 C713.935203,126.733565 709.451393,132.400412 703.75,136.64 C702.28,132.14 706.81,128.14 708.57,123.75 C708.980063,122.939243 709.069334,122.003676 708.82,121.13 C708.18,119.5 705.74,119.32 704.35,120.38 C702.96,121.44 702.35,123.23 701.84,124.9 C703.19,117.75 704.19,109.35 699.13,104.11 C696.13,101.01 691.6,99.85 687.28,99.81 C679.260913,99.7863116 671.589977,103.084199 666.09,108.92 C664.5,110.63 662.24,112.73 660.22,111.55 C659.59169,111.120203 659.09907,110.52004 658.8,109.82 C652.83,98 668.51,85.77 678.14,83.13 Z" id="Path" fill="#78302D"></path>
            <path d="M687.8,96.34 C682.8,94.14 677.55,92.34 672.12,92.34 C666.69,92.34 661.06,94.18 657.47,98.26 C655.595265,100.533429 654.231119,103.183281 653.47,106.03 C652.869146,107.811414 652.631132,109.695119 652.77,111.57 C652.987437,112.92966 653.322016,114.267976 653.77,115.57 C654.71,118.81 655.11,122.57 653.06,125.29 C652.289257,126.387667 651.059012,127.072773 649.72,127.15 C648.350218,127.174198 647.17622,126.175871 646.98,124.82 C646.1,127.31 647.54,130.23 649.83,131.54 C652.216744,132.752131 655.007664,132.886765 657.5,131.91 C658.536263,131.584885 659.498033,131.058121 660.33,130.36 C661.153231,129.568109 661.830277,128.63717 662.33,127.61 C664.42,123.82 665.47,119.61 667.03,115.52 C668.59,111.43 670.85,107.52 674.54,105.22 C677.463305,103.622818 680.749112,102.806533 684.08,102.85 C687.39,102.74 690.72,103.01 694.02,102.71 C697.32,102.41 694.93,100.45 693.51,99.42 C691.716792,98.2011152 689.803479,97.1690654 687.8,96.34 L687.8,96.34 Z" id="Path" fill="#78302D"></path>
            <path d="M822.11,60.49 C822.96,61.15 815,67.35 815,67.35 C815,67.35 811.28,73.76 807.5,75.54 C803.72,77.32 775.32,123.69 775.32,123.69 L764.11,113.53 L788.29,81 C788.29,81 796.29,65.67 795.4,59 C795.4,59 795.88,51.12 798.29,54.78 C799.99,57.39 798.9,61.5 800.91,61.94 C801.132601,61.9594191 801.355838,61.9105861 801.55,61.8 C803.217834,60.7887333 804.747288,59.5651697 806.1,58.16 C810.1,54.35 814.88,49.05 814.88,49.05 C814.88,49.05 817.5,47.94 817.17,49.05 C816.84,50.16 812.03,57.65 811.76,58.05 C812.21,57.64 819.59,51.05 820.76,51.56 C821.93,52.07 815.04,59.66 814.64,60.1 C815.07,59.8 822.94,54.32 823.53,54.81 C824.64,55.74 817.53,61.91 816.94,62.38 C817.39,62.14 821.3,59.85 822.11,60.49 Z" id="Path" fill="#FF8E8E"></path>
            <path d="M813.67,65.24 C813.073624,65.4343595 812.439898,65.4857427 811.82,65.39 C809.803761,65.2367268 807.780198,65.2033347 805.76,65.29 C804.4,65.35 801.59,66.29 801.52,64.18 C801.52,63.62 801.66,63.07 801.63,62.51 C801.616357,62.2676745 801.582912,62.0268713 801.53,61.79 C803.197834,60.7787333 804.727288,59.5551697 806.08,58.15 C806.692653,58.3546653 807.272108,58.647762 807.8,59.02 L811.74,61.57 C812.44,62.03 813.14,62.49 813.81,62.99 C814.106275,63.1756071 814.342455,63.4430468 814.49,63.76 C814.619036,64.3880449 814.270904,65.0163814 813.67,65.24 L813.67,65.24 Z" id="Path" fill="#FF8E8E"></path>
            <path d="M618.4,8.42 C617.32,8.54 620.82,18 620.82,18 C620.82,18 620.6,25.41 622.82,28.91 C625.04,32.41 624.82,86.06 624.82,86.06 L639.7,84.06 L636.32,43.65 C636.32,43.65 637.61,26.41 641.88,21.22 C641.88,21.22 645.62,14.27 641.65,16.11 C638.83,17.43 637.58,21.49 635.65,20.81 C635.445952,20.714041 635.280324,20.5519371 635.18,20.35 C634.271107,18.6175479 633.598455,16.7711182 633.18,14.86 C631.77,9.51 630.53,2.49 630.53,2.49 C630.53,2.49 628.93,0.19 628.67,1.3 C628.41,2.41 628.5,11.3 628.51,11.81 C628.34,11.24 625.51,1.72 624.26,1.55 C623.01,1.38 624.85,11.45 624.97,12.03 C624.75,11.55 620.97,2.75 620.19,2.85 C618.76,3.06 621.6,12.08 621.81,12.75 C621.53,12.31 619.42,8.32 618.4,8.42 Z" id="Path" fill="#FF8E8E"></path>
            <path d="M623,16.91 C623.416241,17.3896381 623.940703,17.7632748 624.53,18 C626.321891,18.9391345 628.058109,19.9808653 629.73,21.12 C630.86,21.89 632.73,24.19 633.92,22.41 C634.24,21.95 634.39,21.41 634.71,20.94 C634.855682,20.7412032 635.012605,20.5508931 635.18,20.37 C634.271107,18.6375479 633.598455,16.7911182 633.18,14.88 C632.551409,14.7321716 631.904389,14.6782533 631.26,14.72 L626.57,14.81 C625.728501,14.7917342 624.886707,14.8284792 624.05,14.92 C623.694174,14.917799 623.345854,15.0222948 623.05,15.22 C622.615037,15.6923738 622.593724,16.4127375 623,16.91 L623,16.91 Z" id="Path" fill="#FF8E8E"></path>
            <path d="M565.67,480.21 C561.67,488.38 558.76,494.73 558.76,494.73 L508.43,497.13 C508.43,497.13 516.77,475.06 530.34,480.76 C534.93,482.68 551.56,479.07 551.56,479.07 L552.08,477.4 L565.67,480.21 Z" id="Path" fill="url(#linearGradient-6)"></path>
            <path d="M744.05,482.68 L736.34,487 L670.34,417.62 L663.06,325 L602.88,379.59 C602.88,379.59 604.49,417.18 583.45,446.59 C579.68,451.86 572.01,467.17 566.21,479.13 C566.03,479.5 565.85,479.88 565.68,480.25 L564.55,480.02 L560.62,479.2 L552.09,477.44 L579.75,365.64 L642.6,265.58 L683.91,276.58 L702.91,281.65 C702.91,281.65 715.73,307.34 702.91,373.83 L694.41,411.89 C694.41,411.89 728.67,430.16 739.23,466.3 L744,482.66 L744.05,482.68 Z" id="Path" fill="#3F3D56"></path>
            <path d="M744.05,482.68 L751.88,490.87 L732,511.59 L706,511.59 C706,511.59 711.54,502.44 722.62,500.99 C733.7,499.54 736.35,486.99 736.35,486.99 L744.05,482.68 Z" id="Path" fill="url(#linearGradient-7)"></path>
            <path d="M215.81,75.06 L211.42,76.5 C230.42,65.29 226.78,36.82 226.55,35.14 C226.85,36.49 231.27,55.28 228.86,61.45 C225.85,69.16 215.81,75.06 215.81,75.06 Z" id="Path" fill="#FFFFFF" opacity="0.22"></path>
            <path d="M184.41,109.44 C182.09,112.65 172.87,117.6 172.24,117.93 C184.64,110.56 181.83,91.59 181.83,91.59 L181.83,91.7 C182.32,93 186.67,106.3 184.41,109.44 Z" id="Path" fill="#FFFFFF" opacity="0.22"></path>
            <polygon id="Path" fill="#FFFFFF" opacity="0.22" points="178.65 215.27 382.32 371.98 390.88 365.6 177.91 201.59"></polygon>
            <polygon id="Path" fill="#FFFFFF" opacity="0.22" points="397.62 370.97 617.33 212.83 617.33 202.04 390.88 366.04"></polygon>
            <path d="M617.21,199.64 L616.61,201.32 L612.14,205.79 C615.28,200.37 606.41,187.79 606.41,187.79 L602.87,185.14 L592.24,177.14 L390.88,26.52 L397.29,21.61 L603.76,179.88 C611.323511,183.737694 616.395169,191.188696 617.21,199.64 Z" id="Path" fill="#FFFFFF" opacity="0.22"></path>
            <path d="M779.4,127.4 C779.4,127.4 745.57,171.15 739.15,178.48 C727.44,191.8 719.89,209.27 719.89,209.27 L702.89,281.61 L683.89,276.54 C683.89,276.54 701.63,210.21 708.76,196.13 C715.89,182.05 775.3,123.69 775.3,123.69 L779.4,127.4 Z" id="Path" fill="url(#linearGradient-8)"></path>
            <path d="M744,482.66 C743.65,481.66 732.36,450.3 715.41,437.15 C698.2,423.79 688.2,405.35 688.2,405.35 C684.2,369.95 683.87,276.54 683.87,276.54 L702.87,281.61 C702.87,281.61 715.69,307.3 702.87,373.79 L694.37,411.85 C694.37,411.85 728.63,430.16 739.19,466.3 L744,482.66 Z" id="Path" fill="#25233A"></path>
            <path d="M602.88,379.57 C602.88,379.57 604.49,417.16 583.45,446.57 C579.68,451.84 572.01,467.15 566.21,479.11 L564.55,480 L560.62,479.18 L560.62,479.18 L593.24,376.29 C593.24,376.29 632.75,329.48 640,325 C647.25,320.52 663.08,325 663.08,325 L602.88,379.57 Z" id="Path" fill="#25233A"></path>
        </g>
    </g>
</svg>